<mxfile host="app.diagrams.net" modified="2023-11-21T06:27:22.411Z" agent="Mozilla/5.0 (Windows NT 10.0; Win64; x64) AppleWebKit/537.36 (KHTML, like Gecko) Chrome/119.0.0.0 Safari/537.36 Edg/119.0.0.0" etag="_CofA62wK-rr33uoZuW5" version="21.2.9" type="device">
  <diagram name="Page-1" id="SaidXz7w-93mmoHUY7Fq">
    <mxGraphModel dx="1292" dy="1035" grid="1" gridSize="10" guides="1" tooltips="1" connect="1" arrows="1" fold="1" page="1" pageScale="1" pageWidth="850" pageHeight="1100" math="0" shadow="0">
      <root>
        <mxCell id="0" />
        <mxCell id="1" parent="0" />
        <mxCell id="PcaAB6nGKO5ZWMJAYDx_-22" value="" style="shape=umlLifeline;perimeter=lifelinePerimeter;whiteSpace=wrap;html=1;container=1;dropTarget=0;collapsible=0;recursiveResize=0;outlineConnect=0;portConstraint=eastwest;newEdgeStyle={&quot;edgeStyle&quot;:&quot;elbowEdgeStyle&quot;,&quot;elbow&quot;:&quot;vertical&quot;,&quot;curved&quot;:0,&quot;rounded&quot;:0};participant=umlEntity;" vertex="1" parent="1">
          <mxGeometry x="445" y="40" width="40" height="300" as="geometry" />
        </mxCell>
        <mxCell id="PcaAB6nGKO5ZWMJAYDx_-23" value="Client" style="html=1;whiteSpace=wrap;" vertex="1" parent="1">
          <mxGeometry x="410" y="30" width="110" height="50" as="geometry" />
        </mxCell>
        <mxCell id="PcaAB6nGKO5ZWMJAYDx_-25" value="" style="shape=umlLifeline;perimeter=lifelinePerimeter;whiteSpace=wrap;html=1;container=1;dropTarget=0;collapsible=0;recursiveResize=0;outlineConnect=0;portConstraint=eastwest;newEdgeStyle={&quot;edgeStyle&quot;:&quot;elbowEdgeStyle&quot;,&quot;elbow&quot;:&quot;vertical&quot;,&quot;curved&quot;:0,&quot;rounded&quot;:0};participant=umlEntity;" vertex="1" parent="1">
          <mxGeometry x="65" y="40" width="40" height="300" as="geometry" />
        </mxCell>
        <mxCell id="PcaAB6nGKO5ZWMJAYDx_-26" value="Server" style="html=1;whiteSpace=wrap;" vertex="1" parent="1">
          <mxGeometry x="30" y="30" width="110" height="50" as="geometry" />
        </mxCell>
        <mxCell id="PcaAB6nGKO5ZWMJAYDx_-27" value="randomNumGenerator(JSON)" style="html=1;verticalAlign=bottom;startArrow=oval;startFill=1;endArrow=block;startSize=8;edgeStyle=elbowEdgeStyle;elbow=vertical;curved=0;rounded=0;" edge="1" parent="1">
          <mxGeometry width="60" relative="1" as="geometry">
            <mxPoint x="440" y="170" as="sourcePoint" />
            <mxPoint x="100" y="170" as="targetPoint" />
          </mxGeometry>
        </mxCell>
        <mxCell id="PcaAB6nGKO5ZWMJAYDx_-28" value="" style="rounded=0;whiteSpace=wrap;html=1;" vertex="1" parent="1">
          <mxGeometry x="455" y="150" width="20" height="100" as="geometry" />
        </mxCell>
        <mxCell id="PcaAB6nGKO5ZWMJAYDx_-29" value="" style="rounded=0;whiteSpace=wrap;html=1;" vertex="1" parent="1">
          <mxGeometry x="75" y="120" width="20" height="170" as="geometry" />
        </mxCell>
        <mxCell id="PcaAB6nGKO5ZWMJAYDx_-30" value="response (JSON)" style="html=1;verticalAlign=bottom;endArrow=open;dashed=1;endSize=8;edgeStyle=elbowEdgeStyle;elbow=vertical;curved=0;rounded=0;" edge="1" parent="1">
          <mxGeometry relative="1" as="geometry">
            <mxPoint x="100" y="250" as="sourcePoint" />
            <mxPoint x="440" y="250" as="targetPoint" />
            <Array as="points">
              <mxPoint x="260" y="250" />
            </Array>
          </mxGeometry>
        </mxCell>
      </root>
    </mxGraphModel>
  </diagram>
</mxfile>
